# xmcd
#
# Track frame offsets:
#	150
#	26058
#	49793
#	68815
#	92745
#	111489
#	143172
#	168069
#	192564
#	218045
#
# Disc length: 3194 seconds
#
# Revision: 2
# Processed by: cddbd v1.5.2PL0 Copyright (c) Steve Scherf et al.
# Submitted via: EZCDAudioConverter 8.0.2.1
#
DISCID=8f0c780a
DTITLE=Hồng Trúc - 13. Rừng Lá Thấp
DYEAR=2002
DGENRE=country
TTITLE0=Rừng Lá Thấp
TTITLE1=Mưa đêm tỉnh nhỏ
TTITLE2=Anh về kẻo mưa
TTITLE3=Tìm anh
TTITLE4=Thành phố sau lưng
TTITLE5=Ngõ hồn qua đêm
TTITLE6=Chiều thương đô thị
TTITLE7=Hai kỷ niệm một chuyến đi
TTITLE8=Nửa đêm thương nhớ
TTITLE9=Mưa bên khung cửa
EXTD=
EXTT0=
EXTT1=
EXTT2=
EXTT3=
EXTT4=
EXTT5=
EXTT6=
EXTT7=
EXTT8=
EXTT9=
PLAYORDER=
